# xmcd
# 
# Track frame offsets:
#	150
#	24115
#	79403
#	111758
#	142361
#	171393
#	203951
#	230053
#	267988
#
# Disc length: 3903 seconds
#
# Revision: 1
# Processed by: cddbd v1.4PL0 Copyright (c) Steve Scherf et al.
# Submitted via: Audio-CD-Archiv 2.10.441
#
DISCID=840f3d09
DTITLE=Luther Allison - Live in Chicago CD2
DYEAR=1900
DGENRE=blues
TTITLE0=Party Time
TTITLE1=All The King's Horses
TTITLE2=What Have I Done Wrong
TTITLE3=Walking Papers
TTITLE4=Think With Your Heart
TTITLE5=What's Going On In My Home
TTITLE6=Will It Ever Change
TTITLE7=You're Gonna Make Me Cry
TTITLE8=Everything's Gonna Be All Right
EXTD=
EXTT0=
EXTT1=
EXTT2=
EXTT3=
EXTT4=
EXTT5=
EXTT6=
EXTT7=
EXTT8=
PLAYORDER=
